<?xml version="1.0" encoding="UTF-8"?>
<svg width="700pt" height="700pt" version="1.1" viewBox="0 0 700 700" xmlns="http://www.w3.org/2000/svg" xmlns:xlink="http://www.w3.org/1999/xlink">
 <defs>
  <symbol id="y" overflow="visible">
   <path d="m18.766-1.125c-0.96875 0.5-1.9805 0.875-3.0312 1.125-1.043 0.25781-2.1367 0.39062-3.2812 0.39062-3.3984 0-6.0898-0.94531-8.0781-2.8438-1.9922-1.9062-2.9844-4.4844-2.9844-7.7344 0-3.2578 0.99219-5.8359 2.9844-7.7344 1.9883-1.9062 4.6797-2.8594 8.0781-2.8594 1.1445 0 2.2383 0.13281 3.2812 0.39062 1.0508 0.25 2.0625 0.625 3.0312 1.125v4.2188c-0.98047-0.65625-1.9453-1.1406-2.8906-1.4531-0.94922-0.3125-1.9492-0.46875-3-0.46875-1.875 0-3.3516 0.60547-4.4219 1.8125-1.0742 1.1992-1.6094 2.8555-1.6094 4.9688 0 2.1055 0.53516 3.7617 1.6094 4.9688 1.0703 1.1992 2.5469 1.7969 4.4219 1.7969 1.0508 0 2.0508-0.14844 3-0.45312 0.94531-0.3125 1.9102-0.80078 2.8906-1.4688z"/>
  </symbol>
  <symbol id="d" overflow="visible">
   <path d="m13.734-11.141c-0.4375-0.19531-0.87109-0.34375-1.2969-0.4375-0.41797-0.10156-0.83984-0.15625-1.2656-0.15625-1.2617 0-2.2305 0.40625-2.9062 1.2188-0.67969 0.80469-1.0156 1.9531-1.0156 3.4531v7.0625h-4.8906v-15.312h4.8906v2.5156c0.625-1 1.3438-1.7266 2.1562-2.1875 0.82031-0.46875 1.8008-0.70312 2.9375-0.70312 0.16406 0 0.34375 0.011719 0.53125 0.03125 0.19531 0.011719 0.47656 0.039062 0.84375 0.078125z"/>
  </symbol>
  <symbol id="a" overflow="visible">
   <path d="m17.641-7.7031v1.4062h-11.453c0.125 1.1484 0.53906 2.0078 1.25 2.5781 0.70703 0.57422 1.7031 0.85938 2.9844 0.85938 1.0312 0 2.082-0.14844 3.1562-0.45312 1.082-0.3125 2.1914-0.77344 3.3281-1.3906v3.7656c-1.1562 0.4375-2.3125 0.76562-3.4688 0.98438-1.1562 0.22656-2.3125 0.34375-3.4688 0.34375-2.7734 0-4.9297-0.70312-6.4688-2.1094-1.5312-1.4062-2.2969-3.3789-2.2969-5.9219 0-2.5 0.75391-4.4609 2.2656-5.8906 1.5078-1.4375 3.582-2.1562 6.2188-2.1562 2.4062 0 4.332 0.73047 5.7812 2.1875 1.4453 1.4492 2.1719 3.3828 2.1719 5.7969zm-5.0312-1.625c0-0.92578-0.27344-1.6719-0.8125-2.2344-0.54297-0.57031-1.25-0.85938-2.125-0.85938-0.94922 0-1.7188 0.26562-2.3125 0.79688s-0.96484 1.2969-1.1094 2.2969z"/>
  </symbol>
  <symbol id="e" overflow="visible">
   <path d="m9.2188-6.8906c-1.0234 0-1.793 0.17188-2.3125 0.51562-0.51172 0.34375-0.76562 0.85547-0.76562 1.5312 0 0.625 0.20703 1.1172 0.625 1.4688 0.41406 0.34375 0.98828 0.51562 1.7188 0.51562 0.92578 0 1.7031-0.32812 2.3281-0.98438 0.63281-0.66406 0.95312-1.4922 0.95312-2.4844v-0.5625zm7.4688-1.8438v8.7344h-4.9219v-2.2656c-0.65625 0.92969-1.3984 1.6055-2.2188 2.0312-0.82422 0.41406-1.8242 0.625-3 0.625-1.5859 0-2.8711-0.45703-3.8594-1.375-0.99219-0.92578-1.4844-2.1289-1.4844-3.6094 0-1.7891 0.61328-3.1016 1.8438-3.9375 1.2383-0.84375 3.1797-1.2656 5.8281-1.2656h2.8906v-0.39062c0-0.76953-0.30859-1.332-0.92188-1.6875-0.61719-0.36328-1.5703-0.54688-2.8594-0.54688-1.0547 0-2.0312 0.10547-2.9375 0.3125-0.89844 0.21094-1.7305 0.52344-2.5 0.9375v-3.7344c1.0391-0.25 2.0859-0.44141 3.1406-0.57812 1.0625-0.13281 2.125-0.20312 3.1875-0.20312 2.7578 0 4.75 0.54688 5.9688 1.6406 1.2266 1.0859 1.8438 2.8555 1.8438 5.3125z"/>
  </symbol>
  <symbol id="c" overflow="visible">
   <path d="m7.7031-19.656v4.3438h5.0469v3.5h-5.0469v6.5c0 0.71094 0.14062 1.1875 0.42188 1.4375s0.83594 0.375 1.6719 0.375h2.5156v3.5h-4.1875c-1.9375 0-3.3125-0.39844-4.125-1.2031-0.80469-0.8125-1.2031-2.1797-1.2031-4.1094v-6.5h-2.4219v-3.5h2.4219v-4.3438z"/>
  </symbol>
  <symbol id="l" overflow="visible">
   <path d="m12.766-13.078v-8.2031h4.9219v21.281h-4.9219v-2.2188c-0.66797 0.90625-1.4062 1.5703-2.2188 1.9844s-1.7578 0.625-2.8281 0.625c-1.8867 0-3.4336-0.75-4.6406-2.25-1.2109-1.5-1.8125-3.4258-1.8125-5.7812 0-2.3633 0.60156-4.2969 1.8125-5.7969 1.207-1.5 2.7539-2.25 4.6406-2.25 1.0625 0 2 0.21484 2.8125 0.64062 0.82031 0.42969 1.5664 1.0859 2.2344 1.9688zm-3.2188 9.9219c1.0391 0 1.8359-0.37891 2.3906-1.1406 0.55078-0.76953 0.82812-1.8828 0.82812-3.3438 0-1.457-0.27734-2.5664-0.82812-3.3281-0.55469-0.76953-1.3516-1.1562-2.3906-1.1562-1.043 0-1.8398 0.38672-2.3906 1.1562-0.55469 0.76172-0.82812 1.8711-0.82812 3.3281 0 1.4609 0.27344 2.5742 0.82812 3.3438 0.55078 0.76172 1.3477 1.1406 2.3906 1.1406z"/>
  </symbol>
  <symbol id="k" overflow="visible">
   <path d="m10.5-3.1562c1.0508 0 1.8516-0.37891 2.4062-1.1406 0.55078-0.76953 0.82812-1.8828 0.82812-3.3438 0-1.457-0.27734-2.5664-0.82812-3.3281-0.55469-0.76953-1.3555-1.1562-2.4062-1.1562-1.0547 0-1.8594 0.38672-2.4219 1.1562-0.55469 0.77344-0.82812 1.8828-0.82812 3.3281 0 1.4492 0.27344 2.5586 0.82812 3.3281 0.5625 0.77344 1.3672 1.1562 2.4219 1.1562zm-3.25-9.9219c0.67578-0.88281 1.4219-1.5391 2.2344-1.9688 0.82031-0.42578 1.7656-0.64062 2.8281-0.64062 1.8945 0 3.4453 0.75 4.6562 2.25 1.207 1.5 1.8125 3.4336 1.8125 5.7969 0 2.3555-0.60547 4.2812-1.8125 5.7812-1.2109 1.5-2.7617 2.25-4.6562 2.25-1.0625 0-2.0078-0.21094-2.8281-0.625-0.8125-0.42578-1.5586-1.0859-2.2344-1.9844v2.2188h-4.8906v-21.281h4.8906z"/>
  </symbol>
  <symbol id="j" overflow="visible">
   <path d="m0.34375-15.312h4.8906l4.125 10.391 3.5-10.391h4.8906l-6.4375 16.766c-0.64844 1.6953-1.4023 2.8828-2.2656 3.5625-0.86719 0.6875-2 1.0312-3.4062 1.0312h-2.8438v-3.2188h1.5312c0.83203 0 1.4375-0.13672 1.8125-0.40625 0.38281-0.26172 0.67969-0.73047 0.89062-1.4062l0.14062-0.42188z"/>
  </symbol>
  <symbol id="i" overflow="visible">
   <path d="m2.5781-20.406h6.6875l4.6562 10.922 4.6719-10.922h6.6875v20.406h-4.9844v-14.938l-4.7031 11.016h-3.3281l-4.7031-11.016v14.938h-4.9844z"/>
  </symbol>
  <symbol id="x" overflow="visible">
   <path d="m6.2188-7.8281-5.5156-7.4844h5.1719l3.1406 4.5312 3.1719-4.5312h5.1719l-5.5156 7.4531 5.7969 7.8594h-5.1875l-3.4375-4.8438-3.4062 4.8438h-5.1875z"/>
  </symbol>
  <symbol id="h" overflow="visible">
   <path d="m2.3594-15.312h4.8906v15.312h-4.8906zm0-5.9688h4.8906v4h-4.8906z"/>
  </symbol>
  <symbol id="g" overflow="visible">
   <path d="m16.547-12.766c0.61328-0.94531 1.3477-1.6719 2.2031-2.1719 0.85156-0.5 1.7891-0.75 2.8125-0.75 1.7578 0 3.0977 0.54688 4.0156 1.6406 0.92578 1.0859 1.3906 2.6562 1.3906 4.7188v9.3281h-4.9219v-7.9844-0.35938c0.007813-0.13281 0.015625-0.32031 0.015625-0.5625 0-1.082-0.16406-1.8633-0.48438-2.3438-0.3125-0.48828-0.82422-0.73438-1.5312-0.73438-0.92969 0-1.6484 0.38672-2.1562 1.1562-0.51172 0.76172-0.77344 1.8672-0.78125 3.3125v7.5156h-4.9219v-7.9844c0-1.6953-0.14844-2.7852-0.4375-3.2656-0.29297-0.48828-0.8125-0.73438-1.5625-0.73438-0.9375 0-1.6641 0.38672-2.1719 1.1562-0.51172 0.76172-0.76562 1.8594-0.76562 3.2969v7.5312h-4.9219v-15.312h4.9219v2.2344c0.60156-0.86328 1.2891-1.5156 2.0625-1.9531 0.78125-0.4375 1.6406-0.65625 2.5781-0.65625 1.0625 0 2 0.25781 2.8125 0.76562 0.8125 0.51172 1.4258 1.2305 1.8438 2.1562z"/>
  </symbol>
  <symbol id="w" overflow="visible">
   <path d="m2.5781-20.406h5.25v7.4375l7.5938-7.4375h6.1094l-9.8281 9.6562 10.844 10.75h-6.5938l-8.125-8.0469v8.0469h-5.25z"/>
  </symbol>
  <symbol id="f" overflow="visible">
   <path d="m2.1875-5.9688v-9.3438h4.9219v1.5312c0 0.83594-0.007813 1.875-0.015625 3.125-0.011719 1.25-0.015625 2.0859-0.015625 2.5 0 1.2422 0.03125 2.1328 0.09375 2.6719 0.070313 0.54297 0.17969 0.93359 0.32812 1.1719 0.20703 0.32422 0.47266 0.57422 0.79688 0.75 0.32031 0.16797 0.69141 0.25 1.1094 0.25 1.0195 0 1.8203-0.39062 2.4062-1.1719 0.58203-0.78125 0.875-1.8672 0.875-3.2656v-7.5625h4.8906v15.312h-4.8906v-2.2188c-0.74219 0.89844-1.5234 1.5586-2.3438 1.9844-0.82422 0.41406-1.7344 0.625-2.7344 0.625-1.7617 0-3.1055-0.53906-4.0312-1.625-0.92969-1.082-1.3906-2.6602-1.3906-4.7344z"/>
  </symbol>
  <symbol id="v" overflow="visible">
   <path d="m2.3594-21.281h4.8906v21.281h-4.8906z"/>
  </symbol>
  <symbol id="u" overflow="visible">
   <path d="m2.3594-21.281h4.8906v11.594l5.625-5.625h5.6875l-7.4688 7.0312 8.0625 8.2812h-5.9375l-5.9688-6.3906v6.3906h-4.8906z"/>
  </symbol>
  <symbol id="b" overflow="visible">
   <path d="m9.6406-12.188c-1.0859 0-1.9141 0.39062-2.4844 1.1719-0.57422 0.78125-0.85938 1.9062-0.85938 3.375s0.28516 2.5938 0.85938 3.375c0.57031 0.77344 1.3984 1.1562 2.4844 1.1562 1.0625 0 1.875-0.38281 2.4375-1.1562 0.57031-0.78125 0.85938-1.9062 0.85938-3.375s-0.28906-2.5938-0.85938-3.375c-0.5625-0.78125-1.375-1.1719-2.4375-1.1719zm0-3.5c2.6328 0 4.6914 0.71484 6.1719 2.1406 1.4766 1.418 2.2188 3.3867 2.2188 5.9062 0 2.5117-0.74219 4.4805-2.2188 5.9062-1.4805 1.418-3.5391 2.125-6.1719 2.125-2.6484 0-4.7148-0.70703-6.2031-2.125-1.4922-1.4258-2.2344-3.3945-2.2344-5.9062 0-2.5195 0.74219-4.4883 2.2344-5.9062 1.4883-1.4258 3.5547-2.1406 6.2031-2.1406z"/>
  </symbol>
  <symbol id="t" overflow="visible">
   <path d="m0.42188-15.312h4.8906l3.8281 10.578 3.7969-10.578h4.9062l-6.0312 15.312h-5.375z"/>
  </symbol>
  <symbol id="s" overflow="visible">
   <path d="m12.422-21.281v3.2188h-2.7031c-0.6875 0-1.1719 0.125-1.4531 0.375-0.27344 0.25-0.40625 0.6875-0.40625 1.3125v1.0625h4.1875v3.5h-4.1875v11.812h-4.8906v-11.812h-2.4375v-3.5h2.4375v-1.0625c0-1.6641 0.46094-2.8984 1.3906-3.7031 0.92578-0.80078 2.3672-1.2031 4.3281-1.2031z"/>
  </symbol>
  <symbol id="r" overflow="visible">
   <path d="m17.75-9.3281v9.3281h-4.9219v-7.1094c0-1.3438-0.03125-2.2656-0.09375-2.7656s-0.16797-0.86719-0.3125-1.1094c-0.1875-0.3125-0.44922-0.55469-0.78125-0.73438-0.32422-0.17578-0.69531-0.26562-1.1094-0.26562-1.0234 0-1.8242 0.39844-2.4062 1.1875-0.58594 0.78125-0.875 1.8711-0.875 3.2656v7.5312h-4.8906v-21.281h4.8906v8.2031c0.73828-0.88281 1.5195-1.5391 2.3438-1.9688 0.83203-0.42578 1.75-0.64062 2.75-0.64062 1.7695 0 3.1133 0.54688 4.0312 1.6406 0.91406 1.0859 1.375 2.6562 1.375 4.7188z"/>
  </symbol>
  <symbol id="q" overflow="visible">
   <path d="m2.5781-20.406h5.875l7.4219 14v-14h4.9844v20.406h-5.875l-7.4219-14v14h-4.9844z"/>
  </symbol>
  <symbol id="p" overflow="visible">
   <path d="m17.75-9.3281v9.3281h-4.9219v-7.1406c0-1.3203-0.03125-2.2344-0.09375-2.7344s-0.16797-0.86719-0.3125-1.1094c-0.1875-0.3125-0.44922-0.55469-0.78125-0.73438-0.32422-0.17578-0.69531-0.26562-1.1094-0.26562-1.0234 0-1.8242 0.39844-2.4062 1.1875-0.58594 0.78125-0.875 1.8711-0.875 3.2656v7.5312h-4.8906v-15.312h4.8906v2.2344c0.73828-0.88281 1.5195-1.5391 2.3438-1.9688 0.83203-0.42578 1.75-0.64062 2.75-0.64062 1.7695 0 3.1133 0.54688 4.0312 1.6406 0.91406 1.0859 1.375 2.6562 1.375 4.7188z"/>
  </symbol>
  <symbol id="o" overflow="visible">
   <path d="m2.5781-20.406h8.7344c2.5938 0 4.582 0.57812 5.9688 1.7344 1.3945 1.1484 2.0938 2.7891 2.0938 4.9219 0 2.1367-0.69922 3.7812-2.0938 4.9375-1.3867 1.1562-3.375 1.7344-5.9688 1.7344h-3.4844v7.0781h-5.25zm5.25 3.8125v5.7031h2.9219c1.0195 0 1.8047-0.25 2.3594-0.75 0.5625-0.5 0.84375-1.2031 0.84375-2.1094 0-0.91406-0.28125-1.6172-0.84375-2.1094-0.55469-0.48828-1.3398-0.73438-2.3594-0.73438z"/>
  </symbol>
  <symbol id="n" overflow="visible">
   <path d="m2.3594-15.312h4.8906v15.031c0 2.0508-0.49609 3.6172-1.4844 4.7031-0.98047 1.082-2.4062 1.625-4.2812 1.625h-2.4219v-3.2188h0.85938c0.92578 0 1.5625-0.21094 1.9062-0.625 0.35156-0.41797 0.53125-1.2461 0.53125-2.4844zm0-5.9688h4.8906v4h-4.8906z"/>
  </symbol>
  <symbol id="m" overflow="visible">
   <path d="m14.719-14.828v3.9844c-0.65625-0.45703-1.3242-0.79688-2-1.0156-0.66797-0.21875-1.3594-0.32812-2.0781-0.32812-1.3672 0-2.4336 0.40234-3.2031 1.2031-0.76172 0.79297-1.1406 1.9062-1.1406 3.3438 0 1.4297 0.37891 2.543 1.1406 3.3438 0.76953 0.79297 1.8359 1.1875 3.2031 1.1875 0.75781 0 1.4844-0.10938 2.1719-0.32812 0.6875-0.22656 1.3203-0.56641 1.9062-1.0156v4c-0.76172 0.28125-1.5391 0.48828-2.3281 0.625-0.78125 0.14453-1.5742 0.21875-2.375 0.21875-2.7617 0-4.9219-0.70703-6.4844-2.125-1.5547-1.4141-2.3281-3.3828-2.3281-5.9062 0-2.5312 0.77344-4.5039 2.3281-5.9219 1.5625-1.4141 3.7227-2.125 6.4844-2.125 0.80078 0 1.5938 0.074219 2.375 0.21875 0.78125 0.13672 1.5547 0.35156 2.3281 0.64062z"/>
  </symbol>
 </defs>
 <g>
  <path d="m586.86 261.54c-0.20312-1.1133-0.42578-2.2188-0.64844-3.3164-0.66797-3.2578-1.2422-6.0703-0.76172-7.875 6.5078-24.504 12.941-62.828 6.6016-106.21-5.7227-39.207-20.648-77.23-43.148-109.96-0.35156-0.50781-0.76172-0.95703-1.1797-1.3945-3.207-4.5742-9.3789-6.1719-14.426-3.457-18.523 9.9609-35.84 22.133-51.465 36.164-16.402 14.734-30.945 31.527-43.629 49.992-13.281-5.582-27.164-9.8438-41.25-12.68-15.098-3.0352-30.547-4.4805-45.941-4.207-0.011719 0-0.015625-0.003906-0.027344-0.003906h-0.17969c-0.066407 0-0.13281-0.003906-0.20313 0-0.011718 0-0.023437 0.003906-0.035156 0.003906-15.371-0.24219-30.84 1.1758-45.938 4.207-14.09 2.832-27.965 7.1016-41.648 12.602-12.293-18.391-26.836-35.184-43.23-49.914-15.617-14.027-32.93-26.191-51.457-36.164-3.7969-2.0391-8.2148-1.625-11.555 0.62891-2.2109 0.74609-4.2227 2.1523-5.6445 4.2227-22.5 32.727-37.418 70.746-43.148 109.96-6.3398 43.391 0.09375 81.703 6.6016 106.21 0.47656 1.7969-0.09375 4.6133-0.76172 7.875-0.22266 1.0977-0.44922 2.207-0.64453 3.3164-1.4609 8.1406-3.0625 16.246-4.6602 24.344-5.7461 29.164-11.688 59.32-11.055 90.562 0.125 6.1055 5.1133 10.969 11.195 10.969h0.23438c6.1836-0.125 11.094-5.2422 10.965-11.43-0.58984-28.824 4.8672-56.488 10.633-85.773 1.625-8.2148 3.2422-16.445 4.7266-24.719 0.16797-0.93359 0.35937-1.8633 0.54687-2.7891 1.0195-5 2.2891-11.223 0.46484-18.098-5.9688-22.484-11.879-57.602-6.0859-97.227 4.8555-33.258 17.031-65.527 35.184-93.918 14.086 8.25 27.367 17.82 39.484 28.699 15.008 13.48 28.324 28.855 39.574 45.695 4.3047 6.4453 11.484 10.059 18.895 10.059 2.957 0 5.9531-0.57812 8.8086-1.7734 11.91-5.0078 24.355-8.832 36.98-11.367 11.691-2.3516 23.656-3.5391 35.57-3.7109v21.469c0 4.6406 3.7578 8.3984 8.3984 8.3984s8.3984-3.7578 8.3984-8.3984v-21.414c5.2539 0.19531 10.488 0.66797 15.707 1.2812v5.6562c0 4.6406 3.7578 8.3984 8.3984 8.3984s8.3984-3.7578 8.3984-8.3984v-2.9688c12.152 2.5352 24.129 6.2344 35.605 11.055 2.8633 1.2031 5.8594 1.7812 8.8125 1.7812 7.4102 0 14.59-3.6172 18.891-10.059 11.25-16.832 24.562-32.211 39.574-45.695 11.789-10.59 24.68-19.941 38.328-28.035 17.922 28.23 29.938 60.258 34.754 93.246 5.7891 39.625-0.11719 74.742-6.0859 97.227-1.8242 6.875-0.55469 13.098 0.46484 18.098 0.19141 0.92578 0.37891 1.8555 0.54688 2.793 1.4844 8.2656 3.1016 16.496 4.7266 24.711 5.7695 29.289 11.223 56.953 10.633 85.773-0.125 6.1836 4.7812 11.301 10.965 11.43h0.23437c6.0742 0 11.07-4.8672 11.195-10.969 0.63672-31.242-5.3047-61.398-11.055-90.562-1.5703-8.0938-3.1719-16.199-4.6328-24.34z"/>
  <path d="m272.07 285.29c0 12.301-9.9727 22.27-22.27 22.27-12.301 0-22.273-9.9688-22.273-22.27s9.9727-22.273 22.273-22.273c12.297 0 22.27 9.9727 22.27 22.273"/>
  <path d="m474.06 285.29c0 12.301-9.9727 22.27-22.27 22.27-12.301 0-22.273-9.9688-22.273-22.27s9.9727-22.273 22.273-22.273c12.297 0 22.27 9.9727 22.27 22.273"/>
  <path d="m301.62 432.63h-0.20703c-15.953 0-27.227-8.8477-32.547-14.133-7.6602-7.6289-11.109-15.617-11.109-18.855 0-4.6406-3.7578-8.3984-8.3984-8.3984s-8.3984 3.7578-8.3984 8.3984c0 8.9805 6.3008 21.055 16.062 30.766 12.336 12.273 28.094 19.023 44.398 19.023h0.28516c1.2148-0.003907 2.3789-0.09375 3.5625-0.16406-0.035156 1.082-0.050781 2.1445-0.089843 3.2266-0.66797 18.531-1.4219 39.535 10.152 58.438 5.6992 9.3359 18.027 19.254 32.891 20.895 0.042969 0.011719 0.09375 0.011719 0.14062 0.023437 0.28125 0.027344 0.54297 0.10547 0.82422 0.12891 0.23047 0.011719 0.46484 0.023438 0.69922 0.023438h0.054687c0.23438 0 0.47656-0.011719 0.71094-0.027344 0.24609-0.023437 0.48047-0.089844 0.72656-0.11719 0.11328-0.023438 0.23047-0.027344 0.33984-0.054688 14.816-1.6875 27.094-11.57 32.77-20.871 11.547-18.871 10.809-39.891 10.16-58.438-0.039063-1.1133-0.050782-2.207-0.089844-3.3164 1.7344 0.14453 3.5 0.23438 5.3203 0.24609h0.28516c16.309 0 32.066-6.7461 44.398-19.023 9.7539-9.7031 16.062-21.785 16.062-30.766 0-4.6406-3.7578-8.3984-8.3984-8.3984-4.6406 0-8.3984 3.7578-8.3984 8.3984 0 3.2422-3.4492 11.227-11.109 18.859-5.3359 5.3086-16.824 14.184-32.754 14.129-21.012-0.10156-35.402-13.234-40.773-19.074v-25.801c5.2969-11.273 12.477-15.875 13.406-16.984 4.8398-5.7891 6.4023-13.371 7.5898-20.625 0.73828-4.5234 1.4375-9.3672-0.47656-13.535-1.7852-3.8789-5.6328-6.5078-9.7031-7.8047-5.6172-1.793-12.227-1.9023-18.082-2.1289-0.67188-0.027344-1.3438-0.011719-2.0156-0.023438-0.67188 0.011719-1.3438-0.003906-2.0156 0.023438-5.8633 0.22266-12.465 0.33594-18.082 2.1289-4.0703 1.3008-7.918 3.9258-9.7031 7.8047-1.9219 4.168-1.2148 9.0117-0.47656 13.535 1.1875 7.2539 2.7422 14.836 7.5898 20.625 1.0352 1.2422 9.8906 6.7656 15.188 21.145 0 0 0 0.003906 0.003906 0.003906v21.633c-5.3828 5.8516-19.766 18.984-40.793 19.086zm76.047 12.926c0.0625 2.5039 0.11328 5 0.20312 7.5391 0.62109 17.746 1.2109 34.512-7.6992 49.086-3.5156 5.7578-11.531 11.934-20.238 12.957-8.7148-1.0117-16.742-7.1914-20.273-12.969-8.9375-14.59-8.332-31.336-7.6992-49.066 0.085937-2.3281 0.13281-4.625 0.19531-6.9336 8.2617-2.6562 15.211-6.6016 20.746-10.641v8.9805c0 3.8633 3.1367 7 7 7 3.8633 0 7-3.1367 7-7v-10.336c5.4336 4.1836 12.379 8.4297 20.766 11.383z"/>
  <path d="m349.91 457.97c-3.8633 0-7 3.1367-7 7v25.289c0 3.8633 3.1367 7 7 7s7-3.1367 7-7v-25.289c0-3.8633-3.1367-7-7-7z"/>
  <path d="m162.93 142.06c-4.7305-0.83984-9.2344 2.2734-10.09 6.9961-1.9609 10.82-2.8125 21.891-2.5352 32.922 0.375 14.191 2.5312 28.43 6.418 42.336 0.96875 3.4727 3.9805 5.9805 7.5703 6.3047 0.26172 0.023437 0.53125 0.035156 0.79688 0.035156 3.293 0 6.332-1.8711 7.7969-4.8711 7.3477-15.043 16.688-29.062 27.727-41.66 7.8281-8.832 16.547-16.996 25.906-24.266 3.5039-2.7227 4.3945-7.6484 2.0547-11.426-6.2891-10.16-13.676-19.789-21.98-28.637-7.8945-8.3711-16.812-16.391-24.461-22.012-2.0664-1.5195-4.7109-2.0508-7.1953-1.4375-2.4922 0.60938-4.5938 2.2891-5.7227 4.5938-2.5703 5.2148-6.3945 13.289-9.832 23.238-1.5664 4.5312 0.83594 9.4766 5.3633 11.043 4.543 1.5664 9.4688-0.83594 11.043-5.3633 1.4375-4.168 2.9609-7.9844 4.418-11.367 4.5859 3.9766 9.3359 8.5234 13.746 13.203 5.7344 6.1133 10.992 12.645 15.691 19.488-7.8555 6.6016-15.25 13.789-22.055 21.465-6.8477 7.8125-13.086 16.109-18.672 24.832-0.69531-5.3086-1.1133-10.633-1.2539-15.949-0.24609-9.832 0.51562-19.719 2.2695-29.379 0.84375-4.7148-2.2891-9.2344-7.0039-10.09z"/>
  <path d="m520 118.5c4.832 11.234 9.8398 26.059 11.766 43.98 0.50781 4.7656 4.7773 8.2305 9.5586 7.6992 4.7656-0.50781 8.2148-4.7891 7.6992-9.5586-2.8516-26.543-11.66-46.777-18.039-59.68-1.1367-2.3008-3.2383-3.9805-5.7227-4.5859-2.4961-0.60937-5.1367-0.078124-7.1953 1.4375-7.6484 5.6211-16.566 13.648-24.473 22.031-8.2891 8.8359-15.676 18.465-21.965 28.621-2.3359 3.7734-1.4492 8.7031 2.0547 11.426 9.3594 7.2695 18.078 15.43 25.879 24.227 11.07 12.629 20.41 26.656 27.758 41.691 1.4688 3 4.5039 4.8711 7.7969 4.8711 0.26172 0 0.52734-0.011719 0.78906-0.035156 3.5898-0.32422 6.6016-2.8398 7.5703-6.3047 3.4141-12.234 5.5117-24.77 6.2109-37.262 0.26953-4.7812-3.3867-8.8828-8.1758-9.1523-4.8086-0.26953-8.8828 3.3945-9.1523 8.1758-0.21875 3.7969-0.57031 7.6055-1.0703 11.402-5.5898-8.7266-11.84-17.035-18.703-24.871-6.7773-7.6445-14.164-14.824-22.02-21.426 4.6992-6.8359 9.9531-13.367 15.676-19.473 4.4219-4.6875 9.1719-9.2344 13.758-13.215z"/>
  <use x="70" y="644" xlink:href="#y"/>
  <use x="90.550781" y="644" xlink:href="#d"/>
  <use x="104.359375" y="644" xlink:href="#a"/>
  <use x="123.347656" y="644" xlink:href="#e"/>
  <use x="142.242188" y="644" xlink:href="#c"/>
  <use x="155.628906" y="644" xlink:href="#a"/>
  <use x="174.617188" y="644" xlink:href="#l"/>
  <use x="204.410156" y="644" xlink:href="#k"/>
  <use x="224.453125" y="644" xlink:href="#j"/>
  <use x="252.453125" y="644" xlink:href="#i"/>
  <use x="280.3125" y="644" xlink:href="#e"/>
  <use x="299.210938" y="644" xlink:href="#x"/>
  <use x="317.269531" y="644" xlink:href="#h"/>
  <use x="326.867188" y="644" xlink:href="#g"/>
  <use x="365.789062" y="644" xlink:href="#w"/>
  <use x="387.488281" y="644" xlink:href="#f"/>
  <use x="407.421875" y="644" xlink:href="#v"/>
  <use x="417.019531" y="644" xlink:href="#h"/>
  <use x="426.617188" y="644" xlink:href="#u"/>
  <use x="445.238281" y="644" xlink:href="#b"/>
  <use x="464.476562" y="644" xlink:href="#t"/>
  <use x="70" y="672" xlink:href="#s"/>
  <use x="82.183594" y="672" xlink:href="#d"/>
  <use x="95.992188" y="672" xlink:href="#b"/>
  <use x="115.226562" y="672" xlink:href="#g"/>
  <use x="154.152344" y="672" xlink:href="#c"/>
  <use x="167.535156" y="672" xlink:href="#r"/>
  <use x="187.46875" y="672" xlink:href="#a"/>
  <use x="216.207031" y="672" xlink:href="#q"/>
  <use x="239.640625" y="672" xlink:href="#b"/>
  <use x="258.878906" y="672" xlink:href="#f"/>
  <use x="278.8125" y="672" xlink:href="#p"/>
  <use x="308.492188" y="672" xlink:href="#o"/>
  <use x="329.015625" y="672" xlink:href="#d"/>
  <use x="342.820312" y="672" xlink:href="#b"/>
  <use x="362.058594" y="672" xlink:href="#n"/>
  <use x="371.65625" y="672" xlink:href="#a"/>
  <use x="390.648438" y="672" xlink:href="#m"/>
  <use x="407.242188" y="672" xlink:href="#c"/>
 </g>
</svg>
